<?xml version="1.0" encoding="utf-8"?>
<!-- Generator: Adobe Illustrator 15.1.0, SVG Export Plug-In . SVG Version: 6.00 Build 0)  -->
<!DOCTYPE svg PUBLIC "-//W3C//DTD SVG 1.1//EN" "http://www.w3.org/Graphics/SVG/1.1/DTD/svg11.dtd">
<svg version="1.1" id="Layer_1" xmlns="http://www.w3.org/2000/svg" xmlns:xlink="http://www.w3.org/1999/xlink" x="0px" y="0px"
	 width="580px" height="95px" viewBox="0 0 580 95" enable-background="new 0 0 580 95" xml:space="preserve">
<path d="M52.81,10.949c8.117,9.276,12.237,21.254,12.237,35.295c0,12.496-4.12,24.217-11.721,33.621
	c-6.44,7.855-13.397,11.978-20.608,11.978C15.842,91.843,0,69.431,0,45.472C0,33.88,3.736,22.414,10.176,13.656
	C16.617,5.152,25.117,0,32.588,0C39.285,0,46.757,4.123,52.81,10.949 M25.375,11.336c-2.061,7.216-3.349,19.968-3.349,34.908
	c0,13.656,0.772,22.672,2.834,30.915c1.545,6.697,3.993,9.79,7.858,9.79c3.09,0,5.536-2.449,6.825-6.83
	c2.319-8.114,3.477-18.932,3.477-33.487c0-15.458-0.643-23.313-2.831-32.718c-1.419-6.184-3.865-9.02-7.729-9.02
	C29.111,4.895,26.664,7.215,25.375,11.336"/>
<path d="M98.323,90.94l-14.556-63.76L81.32,69.174c-0.126,1.802-0.255,3.861-0.255,4.377c0,6.828,2.06,10.435,8.115,14.812v0.518
	H67.152v-0.518c6.185-3.991,7.859-7.598,8.758-19.061l2.835-49.979c0.128-1.288,0.128-2.577,0.128-3.22
	c0-6.7-1.802-10.048-6.955-12.622V2.965h25.246l9.146,41.349l9.274-41.349h24.348v0.517c-4.385,3.089-6.187,6.438-6.187,12.106
	c0,0.645,0.133,2.965,0.258,4.895l3.094,52.682c0.643,8.244,2.445,11.981,7.471,15.199v0.518h-32.976v-0.518
	c5.279-3.991,6.827-7.211,6.827-13.91c0-1.16,0-2.06-0.259-5.409l-2.576-41.863l-13.911,63.76H98.323z"/>
<path d="M201.366,91.586l-38.129-65.694V71.75c0,8.369,2.192,12.493,8.632,16.613v0.518h-22.927v-0.518
	c6.565-4.507,8.499-9.015,8.499-19.189V22.801c0-8.758-1.934-13.269-8.499-19.194V2.965h22.542l27.304,47.016V21.9
	c0-10.176-2.318-15.07-8.63-18.419V2.965h23.058v0.517c-6.186,4.12-8.758,9.144-8.758,16.614v71.49H201.366z"/>
<path d="M250.854,88.88h-34.393v-0.517c5.797-2.832,7.863-7.211,7.863-16.613V20.096c0-9.146-1.675-13.012-7.472-16.614V2.965
	h34.002v0.517c-5.796,4.12-7.34,7.597-7.34,16.614V71.75c0,9.016,1.544,12.493,7.34,16.613V88.88z"/>
<path d="M282.419,71.75c0,9.016,1.674,12.752,7.47,16.613v0.518h-34.392v-0.518c5.796-3.09,7.729-7.34,7.729-16.613V20.354
	c0-9.404-1.933-13.654-7.729-16.747V3.094c9.015-1.547,18.548-2.319,27.563-2.319c12.752,0,20.483,1.933,27.438,6.698
	c6.697,4.637,10.432,12.238,10.432,20.996c0,11.207-6.312,20.611-16.744,24.988c-4.637,1.932-11.852,3.092-19.577,3.092h-2.19V71.75
	z M284.609,51.782c5.54,0,8.758-0.901,10.559-3.22c2.705-3.091,4.121-9.532,4.121-18.676c0-14.559-4.504-24.346-11.201-24.346
	c-3.996,0-5.67,2.447-5.67,8.244v37.997H284.609z"/>
<path d="M378.514,10.949c8.115,9.276,12.24,21.254,12.24,35.295c0,12.496-4.125,24.217-11.725,33.621
	c-6.438,7.855-13.395,11.978-20.607,11.978c-16.873,0-32.717-22.412-32.717-46.371c0-11.592,3.734-23.058,10.174-31.815
	C342.319,5.152,350.823,0,358.289,0C364.992,0,372.459,4.123,378.514,10.949 M351.082,11.336
	c-2.066,7.216-3.352,19.968-3.352,34.908c0,13.656,0.773,22.672,2.834,30.915c1.545,6.697,3.994,9.79,7.857,9.79
	c3.092,0,5.537-2.449,6.822-6.83c2.324-8.114,3.482-18.932,3.482-33.487c0-15.458-0.646-23.313-2.834-32.718
	c-1.416-6.184-3.867-9.02-7.73-9.02C354.811,4.895,352.367,7.215,351.082,11.336"/>
<path d="M444.895,93.518h-0.514c-1.936-3.737-3.738-4.637-9.408-4.637h-40.832v-0.518c5.797-3.349,7.605-7.34,7.605-16.743V20.095
	c0-9.274-1.809-13.265-7.605-16.613V2.965h34.525v0.517c-5.67,3.088-7.73,7.339-7.73,16.613v58.353c0,4.507,0.775,5.924,3.348,5.924
	c3.092,0,8.887-3.605,15.459-9.531c4.379-3.864,7.598-7.342,12.625-13.781l0.385,0.385L444.895,93.518z"/>
<path d="M503.869,93.518h-0.516c-1.936-3.737-3.736-4.637-9.406-4.637h-40.832v-0.518c5.797-3.349,7.604-7.34,7.604-16.743V20.095
	c0-9.274-1.807-13.265-7.604-16.613V2.965h34.525v0.517c-5.668,3.088-7.73,7.339-7.73,16.613v58.353
	c0,4.507,0.773,5.924,3.348,5.924c3.094,0,8.889-3.605,15.459-9.531c4.379-3.864,7.598-7.342,12.625-13.781l0.385,0.385
	L503.869,93.518z"/>
<path d="M567.76,10.949C575.875,20.226,580,32.203,580,46.244c0,12.496-4.125,24.217-11.725,33.621
	c-6.438,7.855-13.395,11.978-20.607,11.978c-16.873,0-32.717-22.412-32.717-46.371c0-11.592,3.734-23.058,10.174-31.815
	C531.565,5.152,540.071,0,547.537,0C554.239,0,561.705,4.123,567.76,10.949 M540.328,11.336c-2.066,7.216-3.352,19.968-3.352,34.908
	c0,13.656,0.773,22.672,2.836,30.915c1.543,6.697,3.992,9.79,7.855,9.79c3.092,0,5.539-2.449,6.824-6.83
	c2.322-8.114,3.484-18.932,3.484-33.487c0-15.458-0.65-23.313-2.834-32.718c-1.42-6.184-3.871-9.02-7.732-9.02
	C544.061,4.895,541.614,7.215,540.328,11.336"/>
</svg>
